<?xml version="1.0" encoding="UTF-8" standalone="no"?>
<svg
   xmlns:dc="http://purl.org/dc/elements/1.1/"
   xmlns:cc="http://creativecommons.org/ns#"
   xmlns:rdf="http://www.w3.org/1999/02/22-rdf-syntax-ns#"
   xmlns:svg="http://www.w3.org/2000/svg"
   xmlns="http://www.w3.org/2000/svg"
   xmlns:sodipodi="http://sodipodi.sourceforge.net/DTD/sodipodi-0.dtd"
   xmlns:inkscape="http://www.inkscape.org/namespaces/inkscape"
   inkscape:version="1.0 (4035a4f, 2020-05-01)"
   version="1.1"
   id="svg6847"
   xml:space="preserve"
   width="755.90533"
   height="755.90533"
   viewBox="0 0 755.90533 755.90533"
   sodipodi:docname="conveyance_example_side.svg"><metadata
     id="metadata6853"><rdf:RDF><cc:Work
         rdf:about=""><dc:format>image/svg+xml</dc:format><dc:type
           rdf:resource="http://purl.org/dc/dcmitype/StillImage" /><dc:title></dc:title></cc:Work></rdf:RDF></metadata><defs
     id="defs6851" /><sodipodi:namedview
     inkscape:document-rotation="0"
     inkscape:current-layer="g6855"
     inkscape:window-maximized="1"
     inkscape:window-y="23"
     inkscape:window-x="0"
     inkscape:cy="400.89982"
     inkscape:cx="489.24694"
     inkscape:zoom="0.6643786"
     showgrid="true"
     id="namedview6849"
     inkscape:window-height="979"
     inkscape:window-width="1280"
     inkscape:pageshadow="2"
     inkscape:pageopacity="0"
     guidetolerance="10"
     gridtolerance="10"
     objecttolerance="10"
     borderopacity="1"
     bordercolor="#666666"
     pagecolor="#ffffff"><inkscape:grid
       id="grid6933"
       type="xygrid" /></sodipodi:namedview><g
     transform="matrix(1.3333333,0,0,-1.3333333,0,755.90533)"
     inkscape:label="conveyance_example_side"
     inkscape:groupmode="layer"
     id="g6855"><g
       transform="translate(150.2068,275.4232)"
       id="g6857"><path
         id="path6859"
         style="fill:none;stroke:#000000;stroke-width:0.51;stroke-linecap:round;stroke-linejoin:round;stroke-miterlimit:10;stroke-dasharray:43.2, 3.6, 3.6, 3.6;stroke-dashoffset:38.324;stroke-opacity:1"
         d="M 0,0 V 20.551" /></g><g
       transform="translate(148.7894,274.0059)"
       id="g6861"><path
         id="path6863"
         style="fill:none;stroke:#000000;stroke-width:0.51;stroke-linecap:round;stroke-linejoin:round;stroke-miterlimit:10;stroke-dasharray:43.2, 3.6, 3.6, 3.6;stroke-dashoffset:38.324;stroke-opacity:1"
         d="M 0,0 H -20.551" /></g><g
       transform="translate(150.2068,272.5886)"
       id="g6865"><path
         id="path6867"
         style="fill:none;stroke:#000000;stroke-width:0.51;stroke-linecap:round;stroke-linejoin:round;stroke-miterlimit:10;stroke-dasharray:43.2, 3.6, 3.6, 3.6;stroke-dashoffset:38.324;stroke-opacity:1"
         d="M 0,0 V -20.551" /></g><g
       transform="translate(151.6241,274.0059)"
       id="g6869"><path
         id="path6871"
         style="fill:none;stroke:#000000;stroke-width:0.51;stroke-linecap:round;stroke-linejoin:round;stroke-miterlimit:10;stroke-dasharray:43.2, 3.6, 3.6, 3.6;stroke-dashoffset:38.324;stroke-opacity:1"
         d="M 0,0 H 20.551" /></g><g
       transform="translate(320.2855,317.9429)"
       id="g6873"><path
         id="path6875"
         style="fill:none;stroke:#000000;stroke-width:0.51;stroke-linecap:round;stroke-linejoin:round;stroke-miterlimit:10;stroke-dasharray:43.2, 3.6, 3.6, 3.6;stroke-dashoffset:38.324;stroke-opacity:1"
         d="M 0,0 V 20.551" /></g><g
       transform="translate(318.8682,316.5256)"
       id="g6877"><path
         id="path6879"
         style="fill:none;stroke:#000000;stroke-width:0.51;stroke-linecap:round;stroke-linejoin:round;stroke-miterlimit:10;stroke-dasharray:43.2, 3.6, 3.6, 3.6;stroke-dashoffset:38.324;stroke-opacity:1"
         d="M 0,0 H -20.551" /></g><g
       transform="translate(320.2855,315.1083)"
       id="g6881"><path
         id="path6883"
         style="fill:none;stroke:#000000;stroke-width:0.51;stroke-linecap:round;stroke-linejoin:round;stroke-miterlimit:10;stroke-dasharray:43.2, 3.6, 3.6, 3.6;stroke-dashoffset:38.324;stroke-opacity:1"
         d="M 0,0 V -20.551" /></g><g
       transform="translate(321.7028,316.5256)"
       id="g6885"><path
         id="path6887"
         style="fill:none;stroke:#000000;stroke-width:0.51;stroke-linecap:round;stroke-linejoin:round;stroke-miterlimit:10;stroke-dasharray:43.2, 3.6, 3.6, 3.6;stroke-dashoffset:38.324;stroke-opacity:1"
         d="M 0,0 H 20.551" /></g><g
       transform="translate(405.3249,252.7461)"
       id="g6889"><path
         id="path6891"
         style="fill:none;stroke:#000000;stroke-width:0.51;stroke-linecap:round;stroke-linejoin:round;stroke-miterlimit:10;stroke-dasharray:43.2, 3.6, 3.6, 3.6;stroke-dashoffset:38.324;stroke-opacity:1"
         d="M 0,0 V 20.551" /></g><g
       transform="translate(403.9075,251.3288)"
       id="g6893"><path
         id="path6895"
         style="fill:none;stroke:#000000;stroke-width:0.51;stroke-linecap:round;stroke-linejoin:round;stroke-miterlimit:10;stroke-dasharray:43.2, 3.6, 3.6, 3.6;stroke-dashoffset:38.324;stroke-opacity:1"
         d="M 0,0 H -20.551" /></g><g
       transform="translate(405.3249,249.9114)"
       id="g6897"><path
         id="path6899"
         style="fill:none;stroke:#000000;stroke-width:0.51;stroke-linecap:round;stroke-linejoin:round;stroke-miterlimit:10;stroke-dasharray:43.2, 3.6, 3.6, 3.6;stroke-dashoffset:38.324;stroke-opacity:1"
         d="M 0,0 V -20.551" /></g><g
       transform="translate(406.7422,251.3288)"
       id="g6901"><path
         id="path6903"
         style="fill:none;stroke:#000000;stroke-width:0.51;stroke-linecap:round;stroke-linejoin:round;stroke-miterlimit:10;stroke-dasharray:43.2, 3.6, 3.6, 3.6;stroke-dashoffset:38.324;stroke-opacity:1"
         d="M 0,0 H 20.551" /></g><g
       transform="translate(150.2,274)"
       id="g6905"><path
         id="path6907"
         style="fill:none;stroke:#000000;stroke-width:0.51;stroke-linecap:round;stroke-linejoin:round;stroke-miterlimit:10;stroke-dasharray:none;stroke-opacity:1"
         d="M 0,0 V 0.7 M 0,0 H -0.8 M 0,0 V -0.8 M 0,0 H 0.7 M 170,42.5 v 0.7 m 0,-0.7 h -0.7 m 0.7,0 v -0.7 m 0,0.7 h 0.7 m 84.4,-65.2 v 0.7 m 0,-0.7 h -0.7 m 0.7,0 v -0.7 m 0,0.7 h 0.7" /></g><g
       transform="translate(128.9,274)"
       id="g6909"><path
         id="path6911"
         style="fill:none;stroke:#000000;stroke-width:0.709;stroke-linecap:round;stroke-linejoin:round;stroke-miterlimit:10;stroke-dasharray:none;stroke-opacity:1"
         d="m 0,0 v 1.4 l 0.2,1.5 0.3,1.4 0.3,1.5 0.5,1.4 0.5,1.3 0.6,1.3 0.8,1.3 0.8,1.2 0.9,1.2 0.9,1.1 1.1,1 1.1,1 1.2,0.9 1.2,0.7 1.3,0.7 1.3,0.7 1.4,0.5 1.4,0.4 1.4,0.3 1.5,0.3 1.5,0.1 h 1.4 l 1.5,-0.1 1.4,-0.1 1.5,-0.3 1.4,-0.4 1.4,-0.5 1.3,-0.5 1.4,-0.7 1.2,-0.7 1.2,-0.9 1.2,-0.9 1.1,-1 1,-1 0.9,-1.2 L 39,11.7 39.7,10.5 40.4,9.2 41,7.8 41.5,6.5 41.9,5 42.2,3.6 42.4,2.2 42.5,0.7 V -0.8 L 42.4,-2.2 42.2,-3.7 41.9,-5.1 41.5,-6.5 41,-7.9 40.4,-9.3 39.7,-10.6 39,-11.8 38.1,-13 l -0.9,-1.1 -1,-1.1 -1.1,-1 -1.2,-0.9 -1.2,-0.8 -1.2,-0.8 -1.4,-0.7 -1.3,-0.5 -1.4,-0.5 -1.4,-0.4 -1.5,-0.2 -1.4,-0.2 -1.5,-0.1 h -1.4 l -1.5,0.2 -1.5,0.2 -1.4,0.3 -1.4,0.4 -1.4,0.5 -1.3,0.7 -1.3,0.7 -1.2,0.8 -1.2,0.8 -1.1,1 -1.1,1 -0.9,1.1 L 4,-12.4 3.2,-11.2 2.4,-9.9 1.8,-8.6 1.3,-7.2 0.8,-5.8 0.5,-4.4 0.2,-3 0,-1.5 V 0 m 170.1,42.5 v 1.4 l 0.2,1.5 0.2,1.4 0.4,1.5 0.4,1.4 0.6,1.3 0.6,1.4 0.7,1.2 0.9,1.3 0.8,1.1 1,1.1 1.1,1 1.1,1 1.2,0.9 1.2,0.8 1.3,0.7 1.3,0.6 1.4,0.5 1.4,0.4 1.4,0.4 1.5,0.2 1.4,0.1 h 1.5 1.5 l 1.4,-0.2 1.5,-0.3 1.4,-0.4 1.4,-0.4 1.3,-0.6 1.3,-0.7 1.3,-0.7 1.2,-0.9 1.2,-0.9 1,-1 1,-1 1,-1.2 0.8,-1.2 0.8,-1.2 0.7,-1.3 0.6,-1.3 0.5,-1.4 0.4,-1.4 0.3,-1.5 0.2,-1.4 0.1,-1.5 v -1.5 l -0.1,-1.4 -0.2,-1.5 -0.3,-1.4 -0.4,-1.4 -0.5,-1.4 -0.6,-1.3 -0.7,-1.3 -0.8,-1.3 -0.8,-1.2 -1,-1.1 -1,-1.1 -1,-1 -1.2,-0.9 -1.2,-0.8 -1.3,-0.8 -1.3,-0.6 -1.3,-0.6 -1.4,-0.5 -1.4,-0.4 -1.5,-0.2 -1.4,-0.2 -1.5,-0.1 h -1.5 l -1.4,0.2 -1.5,0.2 -1.4,0.3 -1.4,0.4 -1.4,0.6 -1.3,0.6 -1.3,0.7 -1.2,0.8 -1.2,0.9 -1.1,0.9 -1.1,1 -1,1.1 -0.8,1.2 -0.9,1.2 -0.7,1.3 -0.6,1.3 -0.6,1.4 -0.4,1.4 -0.4,1.4 -0.2,1.4 -0.2,1.5 v 1.5 m 85,-65.2 0.1,1.4 0.1,1.5 0.3,1.5 0.3,1.4 0.5,1.4 0.5,1.3 0.7,1.4 0.7,1.2 0.8,1.3 0.9,1.1 1,1.1 1,1 1.1,1 1.2,0.9 1.2,0.8 1.3,0.7 1.4,0.6 1.3,0.5 1.4,0.4 1.5,0.4 1.4,0.2 1.5,0.1 h 1.4 1.5 l 1.5,-0.2 1.4,-0.3 1.4,-0.4 1.4,-0.4 1.4,-0.6 1.3,-0.7 1.2,-0.7 1.2,-0.9 1.2,-0.9 1.1,-1 1,-1 0.9,-1.2 0.9,-1.1 0.7,-1.3 0.7,-1.3 0.6,-1.3 0.5,-1.4 0.4,-1.4 0.3,-1.5 0.2,-1.4 0.1,-1.5 v -1.5 l -0.1,-1.4 -0.2,-1.5 -0.3,-1.4 -0.4,-1.4 -0.5,-1.4 -0.6,-1.3 -0.7,-1.3 -0.7,-1.3 -0.9,-1.2 -0.9,-1.1 -1,-1.1 -1.1,-1 -1.2,-0.9 -1.2,-0.8 -1.2,-0.8 -1.3,-0.6 -1.4,-0.6 -1.4,-0.5 -1.4,-0.3 -1.4,-0.3 -1.5,-0.2 -1.5,-0.1 h -1.4 l -1.5,0.2 -1.4,0.2 -1.5,0.3 -1.4,0.5 -1.3,0.5 -1.4,0.6 -1.3,0.7 -1.2,0.8 -1.2,0.9 -1.1,0.9 -1,1 -1,1.1 -0.9,1.2 -0.8,1.2 -0.7,1.3 -0.7,1.3 -0.5,1.4 -0.5,1.4 -0.3,1.4 -0.3,1.5 -0.1,1.4 -0.1,1.5 m -223.8,3.9 0.1,-0.2 m -0.1,0.2 149.9,80.3 m 0,0 0.1,-0.3 M 31.4,-19 181.3,61.2 M 6.7,-15.6 6.5,-15.8 m 0,0 1.2,-0.9 1.1,-0.9 1.3,-0.9 1.3,-0.7 1.3,-0.6 1.4,-0.6 1.4,-0.4 1.5,-0.4 1.5,-0.2 1.4,-0.1 1.5,-0.1 1.5,0.1 1.5,0.1 1.5,0.3 1.4,0.4 1.4,0.4 1.4,0.6 1.3,0.7 m 149.8,80.5 1.3,0.6 1.4,0.6 1.5,0.5 1.5,0.4 1.5,0.2 1.5,0.2 h 1.5 1.5 l 1.6,-0.2 1.5,-0.3 1.4,-0.4 1.5,-0.4 1.4,-0.6 1.3,-0.7 1.4,-0.8 1.2,-0.9 1.2,-0.9 1.1,-1 1.1,-1.2 0.9,-1.1 0.9,-1.3 0.8,-1.3 m 0,0 -0.3,-0.1 M -49.4,37 6.7,-15.6 M -49.4,37 -49.6,36.8 m 0,0 56.1,-52.6 m 285.3,-21.6 0.2,-0.2 m 0,0 69.4,73 m -0.2,0.2 0.2,-0.2 m -69.6,-72.8 69.4,73 M 257.8,-33 l -0.3,-0.2 m -47.6,86 47.6,-86 M 210.2,52.9 257.8,-33 m -0.3,-0.2 0.8,-1.2 0.9,-1.3 0.9,-1.1 1,-1.1 1.1,-1 1.2,-1 1.2,-0.9 1.3,-0.7 1.3,-0.7 1.4,-0.6 1.4,-0.5 1.4,-0.4 1.5,-0.3 1.5,-0.2 1.5,-0.1 1.5,0.1 1.5,0.1 1.4,0.2 1.5,0.3 1.4,0.5 1.4,0.5 1.4,0.6 1.3,0.7 1.3,0.8 1.2,0.9 1.1,1 1.1,1" /></g><path
       id="path7072"
       d="m 101.25,229.429 v -22.5 h 22.5"
       style="fill:none;stroke:#000000;stroke-width:0.75px;stroke-linecap:butt;stroke-linejoin:miter;stroke-opacity:1" /></g></svg>
